<svg width="30" height="30" viewBox="0 0 30 30" fill="none" xmlns="http://www.w3.org/2000/svg">
<rect width="30" height="30" rx="15" fill="#254D70"/>
<path d="M11.9403 11.4565C11.7363 11.1477 11.8212 10.7321 12.1299 10.5281C12.4386 10.3241 12.8543 10.409 13.0583 10.7177L18.2294 18.5436C18.4334 18.8523 18.3485 19.2679 18.0398 19.4719C17.731 19.6759 17.3154 19.591 17.1114 19.2823L11.9403 11.4565Z" fill="white"/>
<path d="M11.0461 18.2545C10.7062 18.1851 10.4797 17.8698 10.5137 17.5319L10.5238 17.4641L11.8512 10.9656C11.9252 10.603 12.2791 10.3692 12.6416 10.4433L19.1401 11.7706C19.5026 11.8446 19.7365 12.1985 19.6624 12.5611C19.5883 12.9236 19.2345 13.1574 18.872 13.0834L13.0298 11.8901L11.8366 17.7322L11.8192 17.7985C11.718 18.1227 11.386 18.3239 11.0461 18.2545Z" fill="white"/>
</svg>
