<svg width="30" height="30" viewBox="0 0 30 30" fill="none" xmlns="http://www.w3.org/2000/svg">
<rect width="30" height="30" rx="15" fill="white"/>
<path d="M18.6284 11.8555C18.9371 11.6515 19.3527 11.7364 19.5567 12.0451C19.7607 12.3539 19.6758 12.7695 19.3671 12.9735L11.5413 18.1446C11.2325 18.3486 10.8169 18.2637 10.6129 17.955C10.4089 17.6463 10.4938 17.2306 10.8025 17.0266L18.6284 11.8555Z" fill="#254D70"/>
<path d="M11.8304 10.9612C11.8998 10.6213 12.2151 10.3948 12.553 10.4288L12.6208 10.4389L19.1193 11.7663C19.4819 11.8403 19.7157 12.1942 19.6416 12.5567L18.3143 19.0552C18.2403 19.4177 17.8864 19.6516 17.5238 19.5775C17.1613 19.5034 16.9275 19.1496 17.0015 18.7871L18.1948 12.9449L12.3527 11.7517L12.2864 11.7343C11.9622 11.6331 11.761 11.3011 11.8304 10.9612Z" fill="#254D70"/>
</svg>
